<svg id="logo-52" xmlns="http://www.w3.org/2000/svg" viewBox="0 0 40 40"><defs><style>.cls-1{fill:#310486;fill-rule:evenodd;}</style></defs><path class="cls-1" d="M21.22,40.5a20,20,0,1,0-20-20A20,20,0,0,0,21.22,40.5ZM24.31,16a4.36,4.36,0,1,0-6.17,0L21.22,19Zm1.46,7.64a4.37,4.37,0,1,0,0-6.18L22.68,20.5Zm-1.46,7.63a4.35,4.35,0,0,0,0-6.17L21.22,22l-3.08,3.09a4.36,4.36,0,0,0,6.17,6.17ZM10.5,23.59a4.37,4.37,0,0,1,6.18-6.18l3.08,3.09-3.08,3.09A4.38,4.38,0,0,1,10.5,23.59Z" transform="translate(-1.22 -0.5)"/></svg>