<svg id="Layer_1" data-name="Layer 1" xmlns="http://www.w3.org/2000/svg" viewBox="0 0 992.71 272.54"><defs><style>.cls-1{fill:none;stroke:#fff;stroke-miterlimit:10;stroke-width:6px;}.cls-2,.cls-3{fill:#fff;}.cls-3{font-size:12px;font-family:Montserrat-Regular, Montserrat;}.cls-4{letter-spacing:-0.01em;}.cls-5{letter-spacing:0em;}.cls-6{letter-spacing:-0.01em;}.cls-7{letter-spacing:-0.01em;}.cls-8{letter-spacing:-0.02em;}.cls-9{letter-spacing:-0.02em;}.cls-10{letter-spacing:-0.01em;}.cls-11{letter-spacing:0em;}.cls-12{letter-spacing:0em;}.cls-13{letter-spacing:-0.01em;}.cls-14{letter-spacing:0em;}.cls-15{letter-spacing:0em;}.cls-16{letter-spacing:0em;}.cls-17{letter-spacing:-0.01em;}.cls-18{letter-spacing:-0.02em;}.cls-19{letter-spacing:0.01em;}.cls-20{letter-spacing:-0.02em;}</style></defs><line class="cls-1" x1="49.62" y1="136.26" x2="990.9" y2="136.26"/><line class="cls-1" x1="199.77" y1="136.26" x2="199.77" y2="59.86"/><path class="cls-2" d="M941.71,83.2c.7.6,1.45,1.16,2.1,1.81q24.47,24.43,48.9,48.88c1.86,1.87,1.86,2.88,0,4.77L943.35,188a7.59,7.59,0,0,1-1.1.94,2.22,2.22,0,0,1-2.85-.26,2.29,2.29,0,0,1-.25-2.93,7.5,7.5,0,0,1,1-1.08l47.43-47.42a9,9,0,0,1,1-.77l.18-.48a4.76,4.76,0,0,1-1.06-.62Q963.81,111.6,940,87.8a4.87,4.87,0,0,1-1.18-1.66c-.43-1.23.12-2.1,1.62-2.94Z"/><circle class="cls-1" cx="27.31" cy="136.26" r="22.36"/><rect class="cls-1" x="90.77" y="4.37" width="218" height="55.49" rx="12"/><line class="cls-1" x1="709.79" y1="136.26" x2="709.79" y2="59.86"/><rect class="cls-1" x="600.79" y="4.37" width="218" height="55.49" rx="12"/><line class="cls-1" x1="466.01" y1="136.26" x2="466.01" y2="212.66"/><rect class="cls-1" x="357.01" y="212.66" width="218" height="55.49" rx="12" transform="translate(932.02 480.8) rotate(180)"/><text class="cls-3" transform="translate(116.65 28.85)"><tspan class="cls-4">C</tspan><tspan x="8.53" y="0">amb</tspan><tspan class="cls-4" x="36.48" y="0">r</tspan><tspan x="41.2" y="0">idge E</tspan><tspan class="cls-5" x="79.21" y="0">n</tspan><tspan x="87.36" y="0">glish </tspan><tspan class="cls-6" x="119.18" y="0">L</tspan><tspan class="cls-7" x="126.16" y="0">e</tspan><tspan class="cls-8" x="133.28" y="0">v</tspan><tspan x="139.61" y="0">el 3 </tspan><tspan x="23.91" y="14.4">(</tspan><tspan class="cls-9" x="27.86" y="14.4">P</tspan><tspan class="cls-10" x="36.2" y="14.4">r</tspan><tspan x="40.85" y="14.4">oficie</tspan><tspan class="cls-5" x="73.87" y="14.4">n</tspan><tspan class="cls-4" x="82.01" y="14.4">c</tspan><tspan x="88.67" y="14.4">y) - </tspan><tspan class="cls-11" x="110" y="14.4">2</tspan><tspan class="cls-12" x="116.76" y="14.4">0</tspan><tspan x="124.68" y="14.4">17</tspan></text><text class="cls-3" transform="translate(381.18 237.1)">B<tspan class="cls-5" x="9.05" y="0">a</tspan><tspan class="cls-6" x="16.15" y="0">c</tspan><tspan x="22.81" y="0">hiller en </tspan><tspan class="cls-5" x="74.34" y="0">a</tspan><tspan x="81.44" y="0">dminist</tspan><tspan class="cls-13" x="127.63" y="0">r</tspan><tspan class="cls-5" x="132.34" y="0">a</tspan><tspan x="139.44" y="0">ci칩n </tspan><tspan x="25.08" y="14.4">de emp</tspan><tspan class="cls-10" x="71.72" y="14.4">r</tspan><tspan x="76.38" y="14.4">esas - </tspan><tspan class="cls-11" x="113.32" y="14.4">2</tspan><tspan class="cls-14" x="120.08" y="14.4">0</tspan><tspan x="128" y="14.4">18</tspan></text><text class="cls-3" transform="translate(615.25 28.75)">Li<tspan class="cls-13" x="10.3" y="0">c</tspan><tspan x="16.94" y="0">e</tspan><tspan class="cls-5" x="24.19" y="0">n</tspan><tspan x="32.34" y="0">ciatu</tspan><tspan class="cls-13" x="62.35" y="0">r</tspan><tspan x="67.06" y="0">a en Dise</tspan><tspan class="cls-15" x="122.05" y="0">침</tspan><tspan class="cls-16" x="130.2" y="0">o G</tspan><tspan class="cls-17" x="150.14" y="0">r</tspan><tspan x="154.85" y="0">치fi</tspan><tspan class="cls-13" x="170.18" y="0">c</tspan><tspan x="176.83" y="0">o - </tspan><tspan x="-1.02" y="14.4">3er a</tspan><tspan class="cls-5" x="28.03" y="14.4">침</tspan><tspan x="36.18" y="14.4">o (</tspan><tspan class="cls-18" x="50.8" y="14.4">C</tspan><tspan x="59.21" y="14.4">u</tspan><tspan class="cls-11" x="67.28" y="14.4">r</tspan><tspan x="72.05" y="14.4">sa</tspan><tspan class="cls-5" x="85" y="14.4">n</tspan><tspan x="93.14" y="14.4">do </tspan><tspan class="cls-5" x="111.95" y="14.4">a</tspan><tspan class="cls-19" x="119.05" y="14.4">c</tspan><tspan x="125.88" y="14.4">tual</tspan><tspan class="cls-15" x="149.14" y="14.4">m</tspan><tspan x="161.89" y="14.4">en</tspan><tspan class="cls-20" x="177.26" y="14.4">t</tspan><tspan x="181.91" y="14.4">e)</tspan></text></svg>